<svg xmlns="http://www.w3.org/2000/svg" xmlns:xlink="http://www.w3.org/1999/xlink" width="500" zoomAndPan="magnify" viewBox="0 0 375 374.999991" height="500" preserveAspectRatio="xMidYMid meet" version="1.0"><defs><g/><clipPath id="ba35d7cf99"><path d="M 21.050781 149 L 57 149 L 57 235.664062 L 21.050781 235.664062 Z M 21.050781 149 " clip-rule="nonzero"/></clipPath><clipPath id="d9e735f7a3"><path d="M 105 149 L 141.800781 149 L 141.800781 235.664062 L 105 235.664062 Z M 105 149 " clip-rule="nonzero"/></clipPath><clipPath id="b47ce0025d"><path d="M 53 139.664062 L 110 139.664062 L 110 208 L 53 208 Z M 53 139.664062 " clip-rule="nonzero"/></clipPath></defs><g clip-path="url(#ba35d7cf99)"><path fill="#ff1e57" d="M 46.820312 169.867188 C 49.226562 167.808594 50.792969 164.46875 50.792969 160.691406 C 50.792969 154.433594 46.496094 149.359375 41.195312 149.359375 C 35.898438 149.359375 31.597656 154.433594 31.597656 160.691406 C 31.597656 164.46875 33.164062 167.808594 35.570312 169.867188 C 27.203125 172.464844 21.085938 180.691406 21.085938 190.449219 L 21.085938 232.324219 C 21.085938 234.164062 22.578125 235.65625 24.417969 235.65625 C 26.253906 235.65625 27.746094 234.164062 27.746094 232.324219 L 27.746094 192.746094 C 27.746094 183.640625 33.765625 176.261719 41.195312 176.261719 C 46.210938 176.261719 50.578125 179.625 52.894531 184.609375 C 53.898438 182.035156 55.21875 179.585938 56.84375 177.3125 C 56.882812 177.257812 56.921875 177.207031 56.960938 177.152344 C 54.402344 173.710938 50.878906 171.125 46.820312 169.867188 " fill-opacity="1" fill-rule="nonzero"/></g><g clip-path="url(#d9e735f7a3)"><path fill="#3870c2" d="M 127.253906 169.867188 C 129.660156 167.808594 131.226562 164.46875 131.226562 160.691406 C 131.226562 154.433594 126.929688 149.359375 121.628906 149.359375 C 116.332031 149.359375 112.035156 154.433594 112.035156 160.691406 C 112.035156 164.46875 113.601562 167.808594 116.003906 169.867188 C 111.949219 171.125 108.421875 173.710938 105.863281 177.152344 C 105.902344 177.207031 105.941406 177.257812 105.980469 177.3125 C 107.605469 179.585938 108.925781 182.035156 109.933594 184.609375 C 112.246094 179.625 116.617188 176.261719 121.628906 176.261719 C 129.058594 176.261719 135.078125 183.640625 135.078125 192.746094 L 135.078125 232.324219 C 135.078125 234.164062 136.570312 235.65625 138.410156 235.65625 C 140.25 235.65625 141.738281 234.164062 141.738281 232.324219 L 141.738281 190.449219 C 141.738281 180.691406 135.621094 172.464844 127.253906 169.867188 " fill-opacity="1" fill-rule="nonzero"/></g><g clip-path="url(#b47ce0025d)"><path fill="#ffffff" d="M 89.292969 168.402344 C 92.664062 165.515625 94.855469 160.835938 94.855469 155.542969 C 94.855469 146.777344 88.835938 139.667969 81.414062 139.667969 C 73.988281 139.667969 67.96875 146.777344 67.96875 155.542969 C 67.96875 160.835938 70.160156 165.515625 73.53125 168.402344 C 61.808594 172.035156 53.238281 183.566406 53.238281 197.238281 L 53.238281 204.046875 C 53.238281 205.890625 54.730469 207.382812 56.570312 207.382812 L 59.238281 207.382812 C 61.078125 207.382812 62.566406 205.890625 62.566406 204.046875 L 62.566406 200.453125 C 62.566406 187.699219 71.003906 177.359375 81.414062 177.359375 C 91.820312 177.359375 100.257812 187.699219 100.257812 200.453125 L 100.257812 204.046875 C 100.257812 205.890625 101.746094 207.382812 103.585938 207.382812 L 106.257812 207.382812 C 108.09375 207.382812 109.585938 205.890625 109.585938 204.046875 L 109.585938 197.238281 C 109.585938 183.566406 101.015625 172.035156 89.292969 168.402344 " fill-opacity="1" fill-rule="nonzero"/></g><g fill="#ffffff" fill-opacity="1"><g transform="translate(152.808803, 198.374987)"><g><path d="M 13.625 -10.453125 C 13.5625 -10.429688 13.53125 -10.394531 13.53125 -10.34375 C 13.53125 -10.300781 13.5625 -10.257812 13.625 -10.21875 C 15.414062 -9.332031 16.3125 -7.789062 16.3125 -5.59375 C 16.3125 -3.75 15.679688 -2.351562 14.421875 -1.40625 C 13.160156 -0.46875 11.515625 0 9.484375 0 L 2.234375 0 C 1.910156 0 1.75 -0.160156 1.75 -0.484375 L 1.75 -19.515625 C 1.75 -19.835938 1.910156 -20 2.234375 -20 L 9.25 -20 C 13.769531 -20 16.03125 -18.171875 16.03125 -14.515625 C 16.03125 -12.585938 15.226562 -11.234375 13.625 -10.453125 Z M 5.9375 -16.53125 C 5.820312 -16.53125 5.765625 -16.472656 5.765625 -16.359375 L 5.765625 -11.96875 C 5.765625 -11.851562 5.820312 -11.796875 5.9375 -11.796875 L 9.25 -11.796875 C 10.144531 -11.796875 10.835938 -12.003906 11.328125 -12.421875 C 11.828125 -12.835938 12.078125 -13.410156 12.078125 -14.140625 C 12.078125 -14.878906 11.828125 -15.460938 11.328125 -15.890625 C 10.835938 -16.316406 10.144531 -16.53125 9.25 -16.53125 Z M 9.484375 -3.484375 C 10.359375 -3.484375 11.039062 -3.707031 11.53125 -4.15625 C 12.03125 -4.601562 12.28125 -5.21875 12.28125 -6 C 12.28125 -6.78125 12.03125 -7.394531 11.53125 -7.84375 C 11.039062 -8.289062 10.347656 -8.515625 9.453125 -8.515625 L 5.9375 -8.515625 C 5.820312 -8.515625 5.765625 -8.457031 5.765625 -8.34375 L 5.765625 -3.65625 C 5.765625 -3.539062 5.820312 -3.484375 5.9375 -3.484375 Z M 9.484375 -3.484375 "/></g></g></g><g fill="#ffffff" fill-opacity="1"><g transform="translate(171.771896, 198.374987)"><g><path d="M 2.234375 0 C 1.910156 0 1.75 -0.160156 1.75 -0.484375 L 1.75 -19.515625 C 1.75 -19.835938 1.910156 -20 2.234375 -20 L 5.28125 -20 C 5.601562 -20 5.765625 -19.835938 5.765625 -19.515625 L 5.765625 -3.625 C 5.765625 -3.507812 5.820312 -3.453125 5.9375 -3.453125 L 15.109375 -3.453125 C 15.429688 -3.453125 15.59375 -3.289062 15.59375 -2.96875 L 15.59375 -0.484375 C 15.59375 -0.160156 15.429688 0 15.109375 0 Z M 2.234375 0 "/></g></g></g><g fill="#ffffff" fill-opacity="1"><g transform="translate(189.364182, 198.374987)"><g><path d="M 9 0.234375 C 7.53125 0.234375 6.238281 -0.0507812 5.125 -0.625 C 4.007812 -1.195312 3.140625 -2 2.515625 -3.03125 C 1.898438 -4.070312 1.59375 -5.269531 1.59375 -6.625 L 1.59375 -19.515625 C 1.59375 -19.835938 1.753906 -20 2.078125 -20 L 5.140625 -20 C 5.460938 -20 5.625 -19.835938 5.625 -19.515625 L 5.625 -6.59375 C 5.625 -5.582031 5.929688 -4.769531 6.546875 -4.15625 C 7.171875 -3.539062 7.988281 -3.234375 9 -3.234375 C 10.007812 -3.234375 10.820312 -3.539062 11.4375 -4.15625 C 12.0625 -4.769531 12.375 -5.582031 12.375 -6.59375 L 12.375 -19.515625 C 12.375 -19.835938 12.535156 -20 12.859375 -20 L 15.90625 -20 C 16.226562 -20 16.390625 -19.835938 16.390625 -19.515625 L 16.390625 -6.625 C 16.390625 -5.269531 16.078125 -4.070312 15.453125 -3.03125 C 14.835938 -2 13.972656 -1.195312 12.859375 -0.625 C 11.753906 -0.0507812 10.46875 0.234375 9 0.234375 Z M 9 0.234375 "/></g></g></g><g fill="#ffffff" fill-opacity="1"><g transform="translate(208.58431, 198.374987)"><g><path d="M 15.625 -17.015625 C 15.625 -16.691406 15.460938 -16.53125 15.140625 -16.53125 L 5.9375 -16.53125 C 5.820312 -16.53125 5.765625 -16.472656 5.765625 -16.359375 L 5.765625 -12 C 5.765625 -11.882812 5.820312 -11.828125 5.9375 -11.828125 L 11.90625 -11.828125 C 12.226562 -11.828125 12.390625 -11.664062 12.390625 -11.34375 L 12.390625 -8.859375 C 12.390625 -8.535156 12.226562 -8.375 11.90625 -8.375 L 5.9375 -8.375 C 5.820312 -8.375 5.765625 -8.316406 5.765625 -8.203125 L 5.765625 -3.625 C 5.765625 -3.507812 5.820312 -3.453125 5.9375 -3.453125 L 15.140625 -3.453125 C 15.460938 -3.453125 15.625 -3.289062 15.625 -2.96875 L 15.625 -0.484375 C 15.625 -0.160156 15.460938 0 15.140625 0 L 2.234375 0 C 1.910156 0 1.75 -0.160156 1.75 -0.484375 L 1.75 -19.515625 C 1.75 -19.835938 1.910156 -20 2.234375 -20 L 15.140625 -20 C 15.460938 -20 15.625 -19.835938 15.625 -19.515625 Z M 15.625 -17.015625 "/></g></g></g><g fill="#ffffff" fill-opacity="1"><g transform="translate(226.5193, 198.374987)"><g/></g></g><g fill="#ffffff" fill-opacity="1"><g transform="translate(233.487807, 198.374987)"><g><path d="M 8.765625 0.234375 C 7.285156 0.234375 5.984375 -0.0546875 4.859375 -0.640625 C 3.734375 -1.222656 2.863281 -2.035156 2.25 -3.078125 C 1.644531 -4.128906 1.34375 -5.34375 1.34375 -6.71875 L 1.34375 -13.3125 C 1.34375 -14.675781 1.644531 -15.882812 2.25 -16.9375 C 2.863281 -17.988281 3.734375 -18.796875 4.859375 -19.359375 C 5.984375 -19.929688 7.285156 -20.21875 8.765625 -20.21875 C 10.234375 -20.21875 11.523438 -19.945312 12.640625 -19.40625 C 13.753906 -18.863281 14.617188 -18.09375 15.234375 -17.09375 C 15.859375 -16.09375 16.171875 -14.9375 16.171875 -13.625 C 16.171875 -13.457031 16.015625 -13.351562 15.703125 -13.3125 L 12.65625 -13.109375 L 12.53125 -13.109375 C 12.269531 -13.109375 12.140625 -13.15625 12.140625 -13.25 L 12.140625 -13.421875 C 12.140625 -14.429688 11.828125 -15.238281 11.203125 -15.84375 C 10.585938 -16.457031 9.773438 -16.765625 8.765625 -16.765625 C 7.734375 -16.765625 6.910156 -16.457031 6.296875 -15.84375 C 5.679688 -15.238281 5.375 -14.429688 5.375 -13.421875 L 5.375 -6.546875 C 5.375 -5.554688 5.679688 -4.753906 6.296875 -4.140625 C 6.910156 -3.535156 7.734375 -3.234375 8.765625 -3.234375 C 9.773438 -3.234375 10.585938 -3.535156 11.203125 -4.140625 C 11.828125 -4.753906 12.140625 -5.554688 12.140625 -6.546875 C 12.140625 -6.640625 12.179688 -6.71875 12.265625 -6.78125 C 12.347656 -6.851562 12.46875 -6.878906 12.625 -6.859375 L 15.6875 -6.71875 C 16.007812 -6.675781 16.171875 -6.625 16.171875 -6.5625 L 16.171875 -6.421875 C 16.171875 -5.109375 15.859375 -3.945312 15.234375 -2.9375 C 14.617188 -1.925781 13.753906 -1.144531 12.640625 -0.59375 C 11.523438 -0.0390625 10.234375 0.234375 8.765625 0.234375 Z M 8.765625 0.234375 "/></g></g></g><g fill="#ffffff" fill-opacity="1"><g transform="translate(252.108208, 198.374987)"><g><path d="M 8.859375 0.3125 C 7.367188 0.3125 6.054688 0.0078125 4.921875 -0.59375 C 3.796875 -1.207031 2.914062 -2.0625 2.28125 -3.15625 C 1.65625 -4.25 1.34375 -5.507812 1.34375 -6.9375 L 1.34375 -13.046875 C 1.34375 -14.460938 1.65625 -15.710938 2.28125 -16.796875 C 2.914062 -17.878906 3.796875 -18.71875 4.921875 -19.3125 C 6.054688 -19.914062 7.367188 -20.21875 8.859375 -20.21875 C 10.359375 -20.21875 11.675781 -19.914062 12.8125 -19.3125 C 13.945312 -18.71875 14.828125 -17.878906 15.453125 -16.796875 C 16.078125 -15.710938 16.390625 -14.460938 16.390625 -13.046875 L 16.390625 -6.9375 C 16.390625 -5.507812 16.078125 -4.242188 15.453125 -3.140625 C 14.828125 -2.035156 13.945312 -1.179688 12.8125 -0.578125 C 11.675781 0.015625 10.359375 0.3125 8.859375 0.3125 Z M 8.859375 -3.140625 C 9.898438 -3.140625 10.742188 -3.472656 11.390625 -4.140625 C 12.046875 -4.804688 12.375 -5.691406 12.375 -6.796875 L 12.375 -13.078125 C 12.375 -14.179688 12.050781 -15.070312 11.40625 -15.75 C 10.769531 -16.425781 9.921875 -16.765625 8.859375 -16.765625 C 7.804688 -16.765625 6.960938 -16.425781 6.328125 -15.75 C 5.691406 -15.070312 5.375 -14.179688 5.375 -13.078125 L 5.375 -6.796875 C 5.375 -5.691406 5.691406 -4.804688 6.328125 -4.140625 C 6.960938 -3.472656 7.804688 -3.140625 8.859375 -3.140625 Z M 8.859375 -3.140625 "/></g></g></g><g fill="#ffffff" fill-opacity="1"><g transform="translate(271.099872, 198.374987)"><g><path d="M 2.234375 0 C 1.910156 0 1.75 -0.160156 1.75 -0.484375 L 1.75 -19.515625 C 1.75 -19.835938 1.910156 -20 2.234375 -20 L 5.171875 -20 C 5.421875 -20 5.609375 -19.890625 5.734375 -19.671875 L 12.875 -7.796875 C 12.914062 -7.722656 12.957031 -7.691406 13 -7.703125 C 13.050781 -7.722656 13.078125 -7.773438 13.078125 -7.859375 L 13.078125 -19.515625 C 13.078125 -19.835938 13.238281 -20 13.5625 -20 L 16.5625 -20 C 16.882812 -20 17.046875 -19.835938 17.046875 -19.515625 L 17.046875 -0.484375 C 17.046875 -0.160156 16.882812 0 16.5625 0 L 13.65625 0 C 13.425781 0 13.234375 -0.113281 13.078125 -0.34375 L 5.90625 -12.34375 C 5.875 -12.414062 5.832031 -12.441406 5.78125 -12.421875 C 5.738281 -12.398438 5.71875 -12.351562 5.71875 -12.28125 L 5.734375 -0.484375 C 5.734375 -0.160156 5.570312 0 5.25 0 Z M 2.234375 0 "/></g></g></g><g fill="#ffffff" fill-opacity="1"><g transform="translate(291.148203, 198.374987)"><g><path d="M 2.234375 0 C 1.910156 0 1.75 -0.160156 1.75 -0.484375 L 1.75 -19.515625 C 1.75 -19.835938 1.910156 -20 2.234375 -20 L 5.171875 -20 C 5.421875 -20 5.609375 -19.890625 5.734375 -19.671875 L 12.875 -7.796875 C 12.914062 -7.722656 12.957031 -7.691406 13 -7.703125 C 13.050781 -7.722656 13.078125 -7.773438 13.078125 -7.859375 L 13.078125 -19.515625 C 13.078125 -19.835938 13.238281 -20 13.5625 -20 L 16.5625 -20 C 16.882812 -20 17.046875 -19.835938 17.046875 -19.515625 L 17.046875 -0.484375 C 17.046875 -0.160156 16.882812 0 16.5625 0 L 13.65625 0 C 13.425781 0 13.234375 -0.113281 13.078125 -0.34375 L 5.90625 -12.34375 C 5.875 -12.414062 5.832031 -12.441406 5.78125 -12.421875 C 5.738281 -12.398438 5.71875 -12.351562 5.71875 -12.28125 L 5.734375 -0.484375 C 5.734375 -0.160156 5.570312 0 5.25 0 Z M 2.234375 0 "/></g></g></g><g fill="#ffffff" fill-opacity="1"><g transform="translate(311.196534, 198.374987)"><g><path d="M 15.625 -17.015625 C 15.625 -16.691406 15.460938 -16.53125 15.140625 -16.53125 L 5.9375 -16.53125 C 5.820312 -16.53125 5.765625 -16.472656 5.765625 -16.359375 L 5.765625 -12 C 5.765625 -11.882812 5.820312 -11.828125 5.9375 -11.828125 L 11.90625 -11.828125 C 12.226562 -11.828125 12.390625 -11.664062 12.390625 -11.34375 L 12.390625 -8.859375 C 12.390625 -8.535156 12.226562 -8.375 11.90625 -8.375 L 5.9375 -8.375 C 5.820312 -8.375 5.765625 -8.316406 5.765625 -8.203125 L 5.765625 -3.625 C 5.765625 -3.507812 5.820312 -3.453125 5.9375 -3.453125 L 15.140625 -3.453125 C 15.460938 -3.453125 15.625 -3.289062 15.625 -2.96875 L 15.625 -0.484375 C 15.625 -0.160156 15.460938 0 15.140625 0 L 2.234375 0 C 1.910156 0 1.75 -0.160156 1.75 -0.484375 L 1.75 -19.515625 C 1.75 -19.835938 1.910156 -20 2.234375 -20 L 15.140625 -20 C 15.460938 -20 15.625 -19.835938 15.625 -19.515625 Z M 15.625 -17.015625 "/></g></g></g><g fill="#ffffff" fill-opacity="1"><g transform="translate(329.13153, 198.374987)"><g><path d="M 8.765625 0.234375 C 7.285156 0.234375 5.984375 -0.0546875 4.859375 -0.640625 C 3.734375 -1.222656 2.863281 -2.035156 2.25 -3.078125 C 1.644531 -4.128906 1.34375 -5.34375 1.34375 -6.71875 L 1.34375 -13.3125 C 1.34375 -14.675781 1.644531 -15.882812 2.25 -16.9375 C 2.863281 -17.988281 3.734375 -18.796875 4.859375 -19.359375 C 5.984375 -19.929688 7.285156 -20.21875 8.765625 -20.21875 C 10.234375 -20.21875 11.523438 -19.945312 12.640625 -19.40625 C 13.753906 -18.863281 14.617188 -18.09375 15.234375 -17.09375 C 15.859375 -16.09375 16.171875 -14.9375 16.171875 -13.625 C 16.171875 -13.457031 16.015625 -13.351562 15.703125 -13.3125 L 12.65625 -13.109375 L 12.53125 -13.109375 C 12.269531 -13.109375 12.140625 -13.15625 12.140625 -13.25 L 12.140625 -13.421875 C 12.140625 -14.429688 11.828125 -15.238281 11.203125 -15.84375 C 10.585938 -16.457031 9.773438 -16.765625 8.765625 -16.765625 C 7.734375 -16.765625 6.910156 -16.457031 6.296875 -15.84375 C 5.679688 -15.238281 5.375 -14.429688 5.375 -13.421875 L 5.375 -6.546875 C 5.375 -5.554688 5.679688 -4.753906 6.296875 -4.140625 C 6.910156 -3.535156 7.734375 -3.234375 8.765625 -3.234375 C 9.773438 -3.234375 10.585938 -3.535156 11.203125 -4.140625 C 11.828125 -4.753906 12.140625 -5.554688 12.140625 -6.546875 C 12.140625 -6.640625 12.179688 -6.71875 12.265625 -6.78125 C 12.347656 -6.851562 12.46875 -6.878906 12.625 -6.859375 L 15.6875 -6.71875 C 16.007812 -6.675781 16.171875 -6.625 16.171875 -6.5625 L 16.171875 -6.421875 C 16.171875 -5.109375 15.859375 -3.945312 15.234375 -2.9375 C 14.617188 -1.925781 13.753906 -1.144531 12.640625 -0.59375 C 11.523438 -0.0390625 10.234375 0.234375 8.765625 0.234375 Z M 8.765625 0.234375 "/></g></g></g><g fill="#ffffff" fill-opacity="1"><g transform="translate(347.751936, 198.374987)"><g><path d="M 15.390625 -20 C 15.710938 -20 15.875 -19.835938 15.875 -19.515625 L 15.875 -17 C 15.875 -16.675781 15.710938 -16.515625 15.390625 -16.515625 L 10.453125 -16.515625 C 10.335938 -16.515625 10.28125 -16.457031 10.28125 -16.34375 L 10.28125 -0.484375 C 10.28125 -0.160156 10.117188 0 9.796875 0 L 6.734375 0 C 6.410156 0 6.25 -0.160156 6.25 -0.484375 L 6.25 -16.34375 C 6.25 -16.457031 6.191406 -16.515625 6.078125 -16.515625 L 1.28125 -16.515625 C 0.957031 -16.515625 0.796875 -16.675781 0.796875 -17 L 0.796875 -19.515625 C 0.796875 -19.835938 0.957031 -20 1.28125 -20 Z M 15.390625 -20 "/></g></g></g></svg>